<?xml version="1.0" standalone="no"?>
<!DOCTYPE svg PUBLIC "-//W3C//DTD SVG 20010904//EN"
 "http://www.w3.org/TR/2001/REC-SVG-20010904/DTD/svg10.dtd">
<svg version="1.0" xmlns="http://www.w3.org/2000/svg"
 width="798.000000pt" height="798.000000pt" viewBox="0 0 798.000000 798.000000"
 preserveAspectRatio="xMidYMid meet">
<metadata>
Created by potrace 1.11, written by Peter Selinger 2001-2013
</metadata>
<g transform="translate(0.000000,798.000000) scale(0.100000,-0.100000)"
fill="#000000" stroke="none">
<path d="M5805 6059 c-93 -20 -284 -61 -424 -90 -139 -30 -267 -62 -282 -71
-37 -23 -52 -61 -46 -118 4 -35 13 -51 41 -77 39 -36 48 -38 127 -22 30 6 65
13 79 15 48 10 115 25 132 30 12 3 16 1 13 -8 -2 -7 -7 -31 -10 -53 -14 -85
-18 -104 -50 -230 -103 -403 -294 -821 -547 -1201 -35 -51 -66 -90 -69 -86 -3
4 -11 34 -18 67 -7 33 -46 206 -87 385 -41 179 -88 386 -105 460 -36 161 -42
189 -68 300 -10 47 -22 99 -25 115 l-7 30 158 55 c164 57 206 83 219 134 17
70 -40 166 -100 166 -17 0 -67 -14 -111 -31 -75 -28 -301 -106 -335 -114 -8
-2 -94 -24 -191 -49 -96 -24 -191 -47 -210 -50 -19 -3 -68 -12 -109 -20 -41
-8 -95 -17 -120 -21 -25 -3 -56 -8 -70 -10 -14 -2 -52 -7 -85 -10 -48 -5 -66
-12 -88 -34 -37 -36 -43 -90 -17 -147 21 -48 47 -66 99 -67 39 -2 172 11 193
18 7 2 32 6 55 9 34 4 43 2 47 -12 6 -23 56 -231 61 -257 3 -11 9 -38 14 -60
9 -36 52 -219 110 -465 11 -47 30 -125 41 -175 12 -49 23 -97 25 -105 4 -21
162 -691 180 -765 8 -33 19 -82 25 -110 7 -27 13 -57 15 -65 2 -8 33 -140 69
-292 36 -152 72 -303 80 -335 8 -32 17 -69 20 -83 2 -14 10 -49 16 -78 7 -29
10 -55 8 -57 -2 -3 -65 -23 -139 -46 -74 -23 -146 -47 -160 -55 -55 -28 -67
-121 -24 -185 33 -51 69 -56 170 -24 211 67 513 147 607 160 24 3 50 8 59 11
9 2 32 7 50 9 19 3 44 7 56 9 11 3 43 7 70 11 26 4 59 8 72 11 14 2 52 6 85 9
163 15 192 26 215 87 14 38 -5 107 -39 140 -39 37 -56 38 -243 15 -59 -7 -111
-11 -115 -8 -5 4 -16 40 -25 81 -9 41 -28 125 -42 185 -36 151 -103 447 -120
520 -7 33 -32 142 -55 242 -24 108 -38 188 -33 196 4 7 37 52 72 100 l63 87
52 -43 c72 -60 261 -249 337 -337 35 -41 66 -77 69 -80 3 -3 42 -52 86 -110
167 -217 306 -440 437 -703 96 -193 112 -212 174 -204 29 3 533 201 858 335
71 30 114 57 124 78 37 82 -21 199 -98 196 -14 0 -118 -39 -231 -85 l-204 -85
-29 66 c-180 422 -483 889 -781 1201 -148 154 -287 280 -399 360 -26 19 -47
39 -47 45 0 5 31 82 69 170 106 248 177 463 226 688 18 85 20 94 34 187 6 35
12 65 13 66 2 1 28 7 58 13 30 7 66 15 80 18 14 3 36 7 50 10 88 16 178 38
193 46 25 13 57 68 57 98 -1 37 -35 107 -59 120 -39 20 -74 17 -246 -21z"/>
<path d="M2989 5553 c-15 -4 -52 -57 -55 -81 -1 -7 -5 -58 -9 -115 -4 -56 -9
-120 -10 -142 -2 -22 -3 -64 -4 -92 -1 -29 -4 -53 -8 -53 -5 0 -26 16 -48 35
-97 85 -243 169 -360 207 -170 54 -301 63 -490 32 -50 -8 -189 -44 -210 -54
-11 -5 -45 -19 -75 -30 -325 -124 -608 -413 -748 -765 -51 -128 -92 -303 -110
-470 -14 -135 -7 -495 12 -591 2 -12 7 -45 11 -75 3 -30 10 -70 15 -89 5 -19
12 -54 15 -77 3 -23 13 -68 21 -100 9 -32 18 -68 20 -80 2 -12 20 -71 38 -131
163 -519 470 -898 862 -1065 83 -35 238 -81 314 -93 66 -10 324 -12 373 -4 23
5 62 11 87 14 199 26 414 139 581 305 146 145 266 350 316 536 4 18 25 99 29
120 13 55 33 207 35 260 5 151 -130 229 -192 112 -6 -10 -12 -41 -15 -70 -2
-29 -7 -70 -10 -92 -3 -22 -7 -55 -9 -74 -13 -113 -103 -339 -182 -458 -150
-226 -417 -390 -650 -398 -193 -6 -383 122 -552 373 -104 154 -221 415 -299
667 -76 243 -112 407 -147 675 -25 196 -20 497 11 655 3 11 7 36 10 55 3 19
19 77 36 128 99 311 287 503 559 570 96 24 180 20 286 -14 139 -44 313 -162
415 -282 33 -38 37 -48 34 -85 -9 -85 -21 -304 -21 -394 0 -87 1 -93 29 -122
34 -36 70 -46 107 -31 55 23 61 47 74 275 3 55 7 132 10 170 9 145 16 252 20
320 12 212 17 295 20 340 9 149 7 193 -10 223 -29 48 -76 69 -126 55z"/>
</g>
</svg>
